<svg width="20" height="20" viewBox="0 0 20 20" fill="none" xmlns="http://www.w3.org/2000/svg">
<g clip-path="url(#clip0_apple)">
<path d="M10.127 5.74667C9.337 5.74667 8.1145 4.84833 6.827 4.88C5.127 4.9025 3.56867 5.86583 2.69284 7.39167C0.92867 10.4542 2.23784 14.9775 3.95867 17.4667C4.80284 18.6783 5.79867 20.0417 7.11867 19.9992C8.38534 19.945 8.86034 19.1767 10.3978 19.1767C11.9237 19.1767 12.3562 19.9992 13.6978 19.9667C15.062 19.945 15.9278 18.7333 16.7612 17.51C17.7353 16.1033 18.1353 14.74 18.1678 14.6642C18.1353 14.6533 15.5162 13.6467 15.4845 10.6167C15.4628 8.08333 17.5512 6.87167 17.6487 6.8175C16.4578 5.07583 14.6187 4.88083 13.9695 4.8375C12.292 4.7075 10.8853 5.74667 10.052 5.74667H10.127ZM12.8645 3.1825C13.5612 2.34917 14.027 1.19083 13.9295 0C12.9337 0.0433333 11.7437 0.693333 11.0295 1.52583C10.3878 2.2625 9.83867 3.44167 9.95784 4.58833C11.062 4.675 12.1978 4.02583 12.8645 3.1825Z" fill="white"/>
</g>
<defs><clipPath id="clip0_apple"><rect width="20" height="20" fill="white"/></clipPath></defs>
</svg>
